<?xml version="1.0" encoding="UTF-8" standalone="no"?>
<!-- Created with Inkscape (http://www.inkscape.org/) -->

<svg
   xmlns:dc="http://purl.org/dc/elements/1.1/"
   xmlns:cc="http://creativecommons.org/ns#"
   xmlns:rdf="http://www.w3.org/1999/02/22-rdf-syntax-ns#"
   xmlns:svg="http://www.w3.org/2000/svg"
   xmlns="http://www.w3.org/2000/svg"
   xmlns:sodipodi="http://sodipodi.sourceforge.net/DTD/sodipodi-0.dtd"
   xmlns:inkscape="http://www.inkscape.org/namespaces/inkscape"
   width="1052.3622"
   height="744.09448"
   id="svg2"
   version="1.1"
   inkscape:version="0.48.2 r9819"
   sodipodi:docname="desenho.svg">
  <defs
     id="defs4" />
  <sodipodi:namedview
     id="base"
     pagecolor="#ffffff"
     bordercolor="#666666"
     borderopacity="1.0"
     inkscape:pageopacity="0.0"
     inkscape:pageshadow="2"
     inkscape:zoom="4.8125796"
     inkscape:cx="173.68615"
     inkscape:cy="469.62766"
     inkscape:document-units="px"
     inkscape:current-layer="layer1"
     showgrid="false"
     inkscape:window-width="1280"
     inkscape:window-height="776"
     inkscape:window-x="0"
     inkscape:window-y="24"
     inkscape:window-maximized="1" />
  <metadata
     id="metadata7">
    <rdf:RDF>
      <cc:Work
         rdf:about="">
        <dc:format>image/svg+xml</dc:format>
        <dc:type
           rdf:resource="http://purl.org/dc/dcmitype/StillImage" />
        <dc:title></dc:title>
      </cc:Work>
    </rdf:RDF>
  </metadata>
  <g
     inkscape:label="Camada 1"
     inkscape:groupmode="layer"
     id="layer1"
     transform="translate(0,-308.2677)">
    <path
       inkscape:connector-curvature="0"
       id="path3792"
       d="m 158.58312,561.29692 c -5.70151,0.13946 -6.83685,3.27985 -0.34666,8.22611 3.80789,2.13255 1.65378,5.6046 0.65584,10.06246 -12.16675,-0.003 -22.26443,3.08132 -26.15865,11.97377 54.97778,-2.94367 53.21003,-3.15819 60,-3.78514 -5.50618,-5.57927 -17.24809,-7.56679 -30.62773,-8.12305 -0.078,-0.003 -0.15632,-0.006 -0.23423,-0.009 -0.0728,-1.26134 0.89046,-3.17183 1.41474,-4.80637 1.16549,2.08047 2.21455,4.00999 4.81574,4.00999 2.27142,0 4.01958,-0.98303 5.34041,-2.5203 -1.25492,-0.83841 -4.79604,1.46755 -4.95628,0.50594 0.5197,-1.26094 4.93549,-1.60835 5.50906,-1.20862 0.95788,-1.35217 1.64597,-3.01961 2.10806,-4.77827 2.23196,-8.49452 -2.28574,-6.35185 -8.00125,-8.01062 -3.83891,-1.11413 -7.09528,-1.59582 -9.51905,-1.53653 z m 10.42786,3.37289 c 0.76988,0.0129 1.60312,0.18405 2.42661,0.51531 2.50966,1.00953 3.99906,3.1801 3.32604,4.85321 -0.67302,1.67311 -3.25236,2.20879 -5.76202,1.19925 -2.50967,-1.00953 -3.99907,-3.1801 -3.32605,-4.85321 0.42064,-1.0457 1.57975,-1.64701 3.0075,-1.70519 0.10708,-0.004 0.21793,-0.0112 0.32792,-0.009 z m 23.36664,24.18176 c -21.1673,1.14425 -49.96219,3.95913 -59.60649,4.04747 2.04933,8.58523 11.90267,12.85002 30.62773,7.34541 12.84756,-3.7768 24.21761,-5.16569 28.97876,-11.39288 z"
       style="fill:#000000;fill-rule:evenodd;stroke:none"
       inkscape:export-filename="/home/guga/work/gcparty/passo-a-passo/src/main/resources/alien.png"
       inkscape:export-xdpi="90"
       inkscape:export-ydpi="90" />
  </g>
</svg>
